PathFileType	4	(X/Y/Z)	/Users/itak/Documents/Research/Walk-IL/dataset/trc/00021_00004.trc
DataRate	CameraRate	NumFrames	NumMarkers	Units	OrigDataRate	OrigDataStartFrame	OrigNumFrames
100.000000	100.000000	4	53	mm	100.000000	490	785
Frame#	Time	RPSI			LPSI			L3			STRN			T10			C7			CLAV			RBAK			LBAK			LSHO			LUPA			LAEL			LAOL			LWTS			LWPS			LFRA			LIFD			LHPS			LHTS			RSHO			RUPA			RAEL			RAOL			RWTS			RWPS			RFRA			RIFD			RHTS			RHPS			RBHD			LFHD			RFHD			LBHD			LHIP			RHIP			RASI			LASI			LKNE			LTHI			LANK			LTIP			LTOE			LMT1			LMT5			LHEE			RKNE			RTHI			RANK			RTIP			RTOE			RMT1			RMT5			RHEE			
		X1	Y1	Z1	X2	Y2	Z2	X3	Y3	Z3	X4	Y4	Z4	X5	Y5	Z5	X6	Y6	Z6	X7	Y7	Z7	X8	Y8	Z8	X9	Y9	Z9	X10	Y10	Z10	X11	Y11	Z11	X12	Y12	Z12	X13	Y13	Z13	X14	Y14	Z14	X15	Y15	Z15	X16	Y16	Z16	X17	Y17	Z17	X18	Y18	Z18	X19	Y19	Z19	X20	Y20	Z20	X21	Y21	Z21	X22	Y22	Z22	X23	Y23	Z23	X24	Y24	Z24	X25	Y25	Z25	X26	Y26	Z26	X27	Y27	Z27	X28	Y28	Z28	X29	Y29	Z29	X30	Y30	Z30	X31	Y31	Z31	X32	Y32	Z32	X33	Y33	Z33	X34	Y34	Z34	X35	Y35	Z35	X36	Y36	Z36	X37	Y37	Z37	X38	Y38	Z38	X39	Y39	Z39	X40	Y40	Z40	X41	Y41	Z41	X42	Y42	Z42	X43	Y43	Z43	X44	Y44	Z44	X45	Y45	Z45	X46	Y46	Z46	X47	Y47	Z47	X48	Y48	Z48	X49	Y49	Z49	X50	Y50	Z50	X51	Y51	Z51	X52	Y52	Z52	X53	Y53	Z53	

491	4.9	-521.0084838867188	1055.1279296875	-189.5743560791016	-359.8615112304688	1036.81640625	-163.5203704833984	-426.9688415527344	1108.243896484375	-181.5019989013672	-475.1654663085938	1290.015258789062	43.9195442199707	-415.1495971679688	1252.43603515625	-204.6500854492188	-413.7633972167969	1517.423706054688	-139.1922454833984	-458.8631591796875	1416.318725585938	5.751901149749756	-479.989990234375	1385.417358398438	-220.6844787597656	-317.4635620117188	1475.207275390625	-137.4796142578125	-270.26806640625	1473.31982421875	-22.27648735046387	-186.0460815429688	1353.989624023438	-51.19551086425781	-153.9139251708984	1141.952392578125	-82.72276306152344	-232.3362121582031	1141.006225585938	-153.9291381835938	-207.6233825683594	873.0858154296875	-60.86815643310547	-155.8701934814453	877.37353515625	-133.3476867675781	-143.8935241699219	1025.775024414062	-93.24661254882812	-220.0852813720703	683.4609985351562	-87.73996734619141	-156.4962310791016	782.9793701171875	-123.5529403686523	-192.9346466064453	774.418701171875	-63.29637145996094	-597.51806640625	1502.176391601562	-111.8377304077148	-666.3856811523438	1441.899536132812	-150.9532470703125	-711.2677612304688	1189.100830078125	-229.4075927734375	-623.7310180664062	1148.345825195312	-209.4444580078125	-750.5288696289062	924.9791870117188	-105.7693481445312	-797.589599609375	918.3303833007812	-185.9262390136719	-741.1453247070312	1114.6142578125	-226.1403961181641	-774.3653564453125	737.016845703125	-85.36055755615234	-785.6651000976562	818.2230224609375	-80.040283203125	-820.0902099609375	819.8776245117188	-146.8267211914062	-521.913330078125	1693.282104492188	-8.45183277130127	-367.7799682617188	1646.498779296875	128.1844177246094	-462.5878601074219	1649.526000976562	151.6509399414062	-382.1377258300781	1692.84375	-47.20497512817383	-276.9266662597656	920.310791015625	-54.85917282104492	-648.9476928710938	956.3680419921875	-85.83572387695312	-584.7020263671875	979.6723022460938	22.0584831237793	-351.2593994140625	974.4940185546875	51.56718444824219	-347.2626647949219	467.477783203125	-5.761476993560791	-304.5664367675781	613.9176635742188	-21.10820770263672	-187.3059844970703	193.9097137451172	-411.880859375	-248.8019561767578	333.1731872558594	-209.1482543945312	-339.4888610839844	35.42203903198242	-381.0050964355469	-326.1395568847656	89.77303314208984	-401.3101501464844	-229.1143493652344	84.55832672119141	-362.3880615234375	-202.1306762695312	267.23291015625	-454.2267761230469	-656.1364135742188	540.8910522460938	51.11323165893555	-666.6981201171875	801.8160400390625	-28.32088661193848	-678.6505737304688	44.89023208618164	-32.70273590087891	-669.1856079101562	411.35888671875	46.24454116821289	-669.0167236328125	45.10304260253906	202.3425750732422	-630.647705078125	50.3447265625	144.4479827880859	-722.6582641601562	42.18460464477539	110.9908447265625	-626.76708984375	45.46033477783203	-81.11708831787109	
492	4.91	-526.7173461914062	1056.870727539062	-181.1223449707031	-365.3626708984375	1038.5595703125	-156.6579437255859	-432.72021484375	1110.119995117188	-173.9075775146484	-478.48046875	1291.765991210938	52.27955627441406	-421.2100219726562	1254.413818359375	-196.9692993164062	-419.2022399902344	1519.336059570312	-131.3292846679688	-462.6103210449219	1418.090209960938	13.8769645690918	-486.2556457519531	1387.35546875	-212.1811676025391	-322.8338012695312	1477.1669921875	-130.713623046875	-274.4401550292969	1475.239501953125	-16.04002380371094	-190.4310150146484	1356.131225585938	-46.19384765625	-158.5799407958984	1144.074951171875	-78.66380310058594	-237.5382080078125	1143.598999023438	-149.2637939453125	-212.8617248535156	875.1732177734375	-57.86904525756836	-161.2513427734375	879.642333984375	-130.5066223144531	-148.8731689453125	1027.908325195312	-89.79398345947266	-227.4865417480469	685.6783447265625	-86.35081481933594	-162.6680603027344	785.0618286132812	-121.3869934082031	-199.0460662841797	776.3414916992188	-61.13277816772461	-602.6041259765625	1504.047241210938	-101.951286315918	-671.9473266601562	1443.736938476562	-140.1422576904297	-718.4066772460938	1190.433837890625	-216.7569274902344	-629.8916625976562	1150.09765625	-198.5713958740234	-755.52294921875	928.7655029296875	-87.16049957275391	-804.3184204101562	920.5411987304688	-166.2560424804688	-748.3616943359375	1115.927124023438	-211.872802734375	-779.4149169921875	741.4171142578125	-62.17786026000977	-790.3840942382812	822.7794799804688	-58.36205673217773	-826.2862548828125	823.095458984375	-124.4389419555664	-526.2191772460938	1695.06396484375	0.4163629412651062	-370.9720458984375	1648.294677734375	135.8556060791016	-465.6052551269531	1651.225708007812	160.0406799316406	-386.7771301269531	1694.728759765625	-39.34566879272461	-280.9547424316406	921.8880004882812	-48.22164916992188	-654.5548706054688	958.4804077148438	-75.59237670898438	-588.463134765625	981.0527954101562	30.87760353088379	-354.7224731445312	976.4710693359375	58.32060241699219	-354.3892517089844	469.3758850097656	11.23500823974609	-310.8066711425781	615.4844360351562	-8.157234191894531	-199.6735992431641	202.3579254150391	-400.7312316894531	-258.7274780273438	337.8464050292969	-195.378662109375	-342.7305297851562	37.12145233154297	-360.9901428222656	-333.0974426269531	92.29817199707031	-382.4186706542969	-234.2575073242188	92.65656280517578	-348.1717529296875	-218.9755706787109	274.2475280761719	-443.1878662109375	-658.157958984375	540.262451171875	55.89427185058594	-670.2341918945312	802.4636840820312	-20.05450057983398	-678.7232055664062	44.99903869628906	-32.67869567871094	-670.7195434570312	410.7288513183594	49.63218307495117	-668.8516235351562	45.06941986083984	202.3503112792969	-630.5778198242188	50.29648971557617	144.4622192382812	-722.5494384765625	42.18162536621094	111.0463180541992	-626.8643188476562	45.55757141113281	-81.14572143554688	
493	4.92	-532.1923217773438	1058.60791015625	-172.7743835449219	-370.6620178222656	1040.324584960938	-149.8742218017578	-438.2881469726562	1111.995727539062	-166.4199066162109	-481.6058349609375	1293.491333007812	60.45988464355469	-427.1241455078125	1256.398071289062	-189.3682861328125	-424.4768371582031	1521.237915039062	-123.5150527954102	-466.1610717773438	1419.802734375	21.86041831970215	-492.3574523925781	1389.319091796875	-203.7425231933594	-328.0652160644531	1479.08935546875	-123.9862976074219	-278.4433288574219	1477.084228515625	-9.88121223449707	-194.7042236328125	1358.168212890625	-41.29629898071289	-163.1885223388672	1146.096801757812	-74.69846343994141	-242.6871795654297	1146.073608398438	-144.6818389892578	-218.0874786376953	877.2346801757812	-54.70048522949219	-166.6679229736328	881.7816772460938	-127.5184631347656	-153.8066253662109	1029.935791015625	-86.35945129394531	-234.8339538574219	687.85791015625	-84.42771148681641	-168.8522491455078	787.0310668945312	-118.9529190063477	-205.135498046875	778.265380859375	-58.65848159790039	-607.4917602539062	1505.936767578125	-92.12078094482422	-677.309814453125	1445.609375	-129.3953857421875	-725.29443359375	1191.819091796875	-204.2247467041016	-636.052001953125	1151.73876953125	-187.6089324951172	-760.109130859375	932.7759399414062	-68.63988494873047	-810.606689453125	922.9547119140625	-146.6025695800781	-755.2718505859375	1117.28564453125	-197.6844635009766	-783.9526977539062	746.182861328125	-38.9420051574707	-794.6456298828125	827.6513061523438	-36.73833847045898	-831.970703125	826.6097412109375	-102.0301284790039	-530.2958374023438	1696.825927734375	9.210319519042969	-373.960205078125	1650.08349609375	143.4664916992188	-468.4265747070312	1652.931762695312	168.3661804199219	-391.1805114746094	1696.57177734375	-31.5661506652832	-284.6665344238281	923.5715942382812	-41.57245635986328	-659.966552734375	960.4414672851562	-65.62287902832031	-592.030517578125	982.385986328125	39.57545852661133	-358.0154724121094	978.4873046875	65.00444793701172	-361.1732177734375	471.6805114746094	28.02811431884766	-316.6978454589844	617.2872314453125	4.607376575469971	-212.6966857910156	209.4313659667969	-388.6292419433594	-268.7419738769531	342.2803649902344	-181.4444732666016	-346.6024780273438	38.89085006713867	-338.9494323730469	-340.5277709960938	94.22145843505859	-361.9371948242188	-240.3015594482422	100.3491668701172	-332.1594848632812	-236.3019409179688	279.445556640625	-431.6880493164062	-660.1492919921875	539.6058959960938	60.31741333007812	-673.6178588867188	802.9894409179688	-12.0813512802124	-678.7754516601562	45.10287475585938	-32.65049743652344	-672.227783203125	410.0940856933594	52.71394348144531	-668.7207641601562	45.0117073059082	202.369873046875	-630.532470703125	50.2416877746582	144.4842681884766	-722.4624633789062	42.15399169921875	111.0994415283203	-626.9536743164062	45.67961883544922	-81.16774749755859	
494	4.93	-537.4482421875	1060.336547851562	-164.5220489501953	-375.7721252441406	1042.113037109375	-143.144775390625	-443.6837158203125	1113.858154296875	-159.0128326416016	-484.5452880859375	1295.19384765625	68.45991516113281	-432.9053955078125	1258.372436523438	-181.8414611816406	-429.6054992675781	1523.114379882812	-115.7622146606445	-469.5318908691406	1421.472045898438	29.73461151123047	-498.3281555175781	1391.287231445312	-195.3666229248047	-333.1770629882812	1480.967529296875	-117.3224868774414	-282.2876281738281	1478.859130859375	-3.818016529083252	-198.8828887939453	1360.09619140625	-36.51164627075195	-167.7815551757812	1148.009521484375	-70.80347442626953	-247.8362579345703	1148.410400390625	-140.1403503417969	-223.2716674804688	879.2417602539062	-51.36711502075195	-172.1260223388672	883.7947387695312	-124.4093780517578	-158.7228393554688	1031.852905273438	-82.9390869140625	-241.9622955322266	689.9765625	-81.97467041015625	-174.9962615966797	788.8948974609375	-116.2862930297852	-211.1212768554688	780.166748046875	-55.88827514648438	-612.1920776367188	1507.830688476562	-82.34775543212891	-682.492431640625	1447.50048828125	-118.7130432128906	-731.940673828125	1193.243041992188	-191.8133392333984	-642.2387084960938	1153.264770507812	-176.5480346679688	-764.2750244140625	936.997314453125	-50.26395416259766	-816.4493408203125	925.5550537109375	-126.9985504150391	-761.8894653320312	1118.661499023438	-183.5792236328125	-787.9557495117188	751.2969360351562	-15.71954441070557	-798.4380493164062	832.8223876953125	-15.21441841125488	-837.1259155273438	830.3976440429688	-79.65059661865234	-534.1466674804688	1698.561767578125	17.94145393371582	-376.7363891601562	1651.834228515625	151.0079803466797	-471.0396118164062	1654.617431640625	176.6271667480469	-395.350341796875	1698.368408203125	-23.86385536193848	-288.1333923339844	925.35498046875	-34.91978073120117	-665.035400390625	962.1334228515625	-56.07062911987305	-595.420654296875	983.6881103515625	48.15962219238281	-361.1544189453125	980.539306640625	71.63565826416016	-367.5577392578125	474.3580932617188	44.56581497192383	-322.2053833007812	619.3087768554688	17.15623474121094	-226.2254028320312	214.9052581787109	-375.5543823242188	-278.8006896972656	346.3209228515625	-167.3220520019531	-351.3236999511719	40.5856819152832	-315.3643188476562	-348.5217590332031	95.50930023193359	-340.2140197753906	-247.3477478027344	107.2310333251953	-314.6656799316406	-253.8494567871094	282.7304077148438	-419.5631103515625	-662.144775390625	538.9287109375	64.37657165527344	-676.8880615234375	803.353759765625	-4.465729236602783	-678.800048828125	45.1948127746582	-32.61795425415039	-673.74462890625	409.4636535644531	55.48828125	-668.6300048828125	44.94245529174805	202.3959503173828	-630.51318359375	50.18883895874023	144.5105590820312	-722.4032592773438	42.10757064819336	111.1466369628906	-627.0316162109375	45.82038116455078	-81.18453979492188	
